<?xml version="1.0" encoding="UTF-8" standalone="no"?>
<!DOCTYPE svg PUBLIC "-//W3C//DTD SVG 1.1//EN" "http://www.w3.org/Graphics/SVG/1.1/DTD/svg11.dtd">
<svg version="1.1" xmlns="http://www.w3.org/2000/svg" xmlns:xlink="http://www.w3.org/1999/xlink" preserveAspectRatio="xMidYMid meet" viewBox="0 0 512 512" width="512" height="512"><defs><path d="M247.72 188.05L13.87 279.65L12.29 294.51L11.69 285.52L11.16 276.63L10.7 267.85L10.31 259.17L9.99 250.6L9.73 242.14L9.55 233.78L9.43 225.53L9.38 217.38L9.4 209.34L9.48 201.41L9.64 193.58L9.86 185.86L10.15 178.25L10.51 170.74L10.94 163.33L11.44 156.04L12 148.85L12.64 141.76L13.34 134.79L14.11 127.91L14.95 121.15L15.85 114.49L16.83 107.94L17.87 101.49L18.98 95.15L20.16 88.91L21.41 82.79L22.73 76.76L24.12 70.85L25.57 65.04L27.09 59.33L28.68 53.74L30.34 48.24L32.07 42.86L33.86 37.58L35.73 32.41L37.66 27.34L39.66 22.38L41.05 19.12L41.38 16.16L144.56 102.1L247.72 188.05Z" id="d14mte7Vx4"></path><path d="M499.97 304.72C499.97 419.12 390.65 512 256 512C121.35 512 12.03 419.12 12.03 304.72C12.03 190.32 121.35 97.44 256 97.44C390.65 97.44 499.97 190.32 499.97 304.72Z" id="buMgzHwrD"></path><path d="M219.25 254.92C219.25 285.31 193.16 309.98 161.03 309.98C128.89 309.98 102.8 285.31 102.8 254.92C102.8 224.53 128.89 199.86 161.03 199.86C193.16 199.86 219.25 224.53 219.25 254.92Z" id="dgkTgvmPS"></path><path d="M283.99 349.95C283.99 364.33 271.45 376 256 376C240.55 376 228.01 364.33 228.01 349.95C228.01 335.58 240.55 323.9 256 323.9C271.45 323.9 283.99 335.58 283.99 349.95Z" id="e3jUQjYjP3"></path><path d="M200.48 262.6C200.48 277.44 187.22 289.49 170.89 289.49C154.55 289.49 141.29 277.44 141.29 262.6C141.29 247.76 154.55 235.71 170.89 235.71C187.22 235.71 200.48 247.76 200.48 262.6Z" id="a1EBYv0oge"></path><path d="M249.23 401.38C276.19 429.2 302.45 425.07 328 389.01" id="e13QA2upbB"></path><path d="M469.75 22.22L471.75 27.18L473.68 32.25L475.55 37.42L477.34 42.7L479.07 48.08L480.73 53.58L482.32 59.17L483.84 64.88L485.3 70.69L486.68 76.6L488 82.63L489.25 88.76L490.43 94.99L491.54 101.33L492.58 107.78L493.56 114.33L494.47 120.99L495.3 127.76L496.07 134.63L496.78 141.61L497.41 148.69L497.97 155.88L498.47 163.18L498.9 170.58L499.26 178.09L499.55 185.7L499.77 193.42L499.93 201.25L500.02 209.18L500.03 217.22L499.98 225.37L499.87 233.62L499.68 241.98L499.42 250.44L499.1 259.01L498.71 267.69L498.25 276.47L497.72 285.36L497.12 294.36L495.54 279.49L261.69 187.89L364.86 101.95L468.03 16L468.36 18.96L469.75 22.22Z" id="d1UdYnmbY"></path><path d="M292.73 161.4C338 113.97 396.57 68.39 468.45 24.66" id="b30gtJJfg0"></path><path d="M216.68 161.55C171.42 114.13 112.84 68.55 40.97 24.82" id="b1J6tkujay"></path><path d="M410.23 258.16C410.23 288.55 384.14 313.22 352 313.22C319.86 313.22 293.77 288.55 293.77 258.16C293.77 227.77 319.86 203.1 352 203.1C384.14 203.1 410.23 227.77 410.23 258.16Z" id="b3ibMFxQH0"></path><path d="M377.59 263.68C377.59 278.52 364.33 290.57 347.99 290.57C331.66 290.57 318.39 278.52 318.39 263.68C318.39 248.84 331.66 236.79 347.99 236.79C364.33 236.79 377.59 248.84 377.59 263.68Z" id="cCKMVn6LH"></path><path d="M265.99 401.35C239.13 429.27 212.85 425.25 187.17 389.28" id="becKMo0a"></path></defs><g><g><g><use xlink:href="#d14mte7Vx4" opacity="1" fill="#000000" fill-opacity="1"></use><g><use xlink:href="#d14mte7Vx4" opacity="1" fill-opacity="0" stroke="#000000" stroke-width="1" stroke-opacity="1"></use></g></g><g><use xlink:href="#buMgzHwrD" opacity="1" fill="#000000" fill-opacity="1"></use></g><g><use xlink:href="#dgkTgvmPS" opacity="1" fill="#ffffff" fill-opacity="1"></use></g><g><use xlink:href="#e3jUQjYjP3" opacity="1" fill="#ffffff" fill-opacity="1"></use><g><use xlink:href="#e3jUQjYjP3" opacity="1" fill-opacity="0" stroke="#ffffff" stroke-width="1" stroke-opacity="1"></use></g></g><g><use xlink:href="#a1EBYv0oge" opacity="1" fill="#000000" fill-opacity="1"></use><g><use xlink:href="#a1EBYv0oge" opacity="1" fill-opacity="0" stroke="#000000" stroke-width="1" stroke-opacity="1"></use></g></g><g><use xlink:href="#e13QA2upbB" opacity="1" fill="#000000" fill-opacity="1"></use><g><use xlink:href="#e13QA2upbB" opacity="1" fill-opacity="0" stroke="#ffffff" stroke-width="23" stroke-opacity="1"></use></g></g><g><use xlink:href="#d1UdYnmbY" opacity="1" fill="#000000" fill-opacity="1"></use><g><use xlink:href="#d1UdYnmbY" opacity="1" fill-opacity="0" stroke="#000000" stroke-width="1" stroke-opacity="1"></use></g></g><g><use xlink:href="#b30gtJJfg0" opacity="1" fill="#000000" fill-opacity="1"></use><g><use xlink:href="#b30gtJJfg0" opacity="1" fill-opacity="0" stroke="#000000" stroke-width="14" stroke-opacity="1"></use></g></g><g><use xlink:href="#b1J6tkujay" opacity="1" fill="#000000" fill-opacity="1"></use><g><use xlink:href="#b1J6tkujay" opacity="1" fill-opacity="0" stroke="#000000" stroke-width="14" stroke-opacity="1"></use></g></g><g><use xlink:href="#b3ibMFxQH0" opacity="1" fill="#ffffff" fill-opacity="1"></use></g><g><use xlink:href="#cCKMVn6LH" opacity="1" fill="#000000" fill-opacity="1"></use><g><use xlink:href="#cCKMVn6LH" opacity="1" fill-opacity="0" stroke="#000000" stroke-width="1" stroke-opacity="1"></use></g></g><g><use xlink:href="#becKMo0a" opacity="1" fill="#000000" fill-opacity="1"></use><g><use xlink:href="#becKMo0a" opacity="1" fill-opacity="0" stroke="#ffffff" stroke-width="23" stroke-opacity="1"></use></g></g></g></g></svg>